IKResults
version=1
nRows=4
nColumns=67
inDegrees=yes

Units are S.I. units (second, meters, Newtons, ...)
Angles are in degrees.

endheader
time	pelvis_tilt	pelvis_list	pelvis_rotation	pelvis_tx	pelvis_ty	pelvis_tz	hip_flexion_r	hip_adduction_r	hip_rotation_r	knee_angle_r	knee_rot_r	knee_adduc_r	ankle_angle_r	ankle_rot_r	ankle_add_r	subtalar_angle_r	mtp_angle_r	mtp_rot_r	mtp_add_r	hip_flexion_l	hip_adduction_l	hip_rotation_l	knee_angle_l	knee_rot_l	knee_adduc_l	ankle_angle_l	ankle_rot_l	ankle_add_l	subtalar_angle_l	mtp_angle_l	mtp_rot_l	mtp_add_l	lumbar_extension	lumbar_bending	lumbar_rotation	neck_flexion	neck_lateral_bending	neck_rotation	arm_flex_r	arm_add_r	arm_rot_r	elbow_flex_r	elbow_rot_r	elbow_add_r	pro_sup_r	wrist_flex_r	wrist_adduc_r	wrist_rot_r	wrist_dev_r	hand_finger_flex_r	hand_finger_adduc_r	hand_finger_rot_r	arm_flex_l	arm_add_l	arm_rot_l	elbow_flex_l	elbow_rot_l	elbow_add_l	pro_sup_l	wrist_flex_l	wrist_adduc_l	wrist_rot_l	wrist_dev_l	hand_finger_flex_l	hand_finger_adduc_l	hand_finger_rot_l
      2.25000000	     14.83166162	      2.67172733	     -9.24814968	      0.52585209	      0.75991504	      0.79382484	      9.45312889	     -5.23510181	      0.56968397	    -28.53286467	     -5.00000000	      3.45297450	      8.34861733	     -4.87743216	      5.00000000	    -13.47191915	     18.88424558	     -2.00000000	      1.34049520	    -24.06664999	     11.07238960	     -2.92969371	     -3.00230220	      5.00000000	      2.66221826	     10.91257884	     -2.90184165	      5.00000000	      0.14112075	     20.32256821	      1.30999183	      2.00000000	    -32.69987181	     -4.72702279	     -5.44930693	      0.00000000	      0.00000000	      0.00000000	      0.00000000	      0.00000000	      0.00000000	      0.00000000	      0.00000000	      0.00000000	     -0.00042092	      0.00000000	      0.00000000	      0.00000000	      0.00000000	      0.00000000	      0.00000000	      0.00000000	      0.00000000	      0.00000000	      0.00000000	      0.00000000	      0.00000000	      0.00000000	      0.00000000	      0.00000000	      0.00000000	      0.00000000	      0.00000000	      0.00000000	      0.00000000	      0.00000000
      2.25500000	     14.82070532	      2.81513726	     -9.24817015	      0.53162136	      0.75890318	      0.79421929	      9.80003855	     -5.35669553	      0.43648341	    -26.84584340	     -5.00000000	      3.57727558	      8.30008629	     -4.85019601	      5.00000000	    -13.35493036	     18.84715674	     -2.00000000	      1.32571015	    -24.57121845	     11.22048926	     -2.87531252	     -2.93059079	      5.00000000	      2.61582833	     11.13294416	     -2.94900018	      5.00000000	      0.14148764	     20.31405950	      1.30537322	      2.00000000	    -32.80908037	     -4.88396462	     -5.66494463	      0.00000000	      0.00000000	      0.00000000	      0.00000000	      0.00000000	      0.00000000	      0.00000000	      0.00000000	      0.00000000	     -0.00042092	      0.00000000	      0.00000000	      0.00000000	      0.00000000	      0.00000000	      0.00000000	      0.00000000	      0.00000000	      0.00000000	      0.00000000	      0.00000000	      0.00000000	      0.00000000	      0.00000000	      0.00000000	      0.00000000	      0.00000000	      0.00000000	      0.00000000	      0.00000000	      0.00000000
      2.26000000	     14.85416819	      3.00094967	     -9.20317726	      0.53735846	      0.75789130	      0.79462908	     10.03162234	     -5.51134358	      0.27030722	    -25.05327209	     -5.00000000	      3.64417642	      8.20265547	     -4.82906716	      5.00000000	    -13.23074775	     18.80639933	     -2.00000000	      1.30921944	    -25.08417918	     11.38928900	     -2.80245278	     -2.92305538	      5.00000000	      2.56557347	     11.37717710	     -3.01306054	      5.00000000	      0.15466094	     20.30661304	      1.30019521	      2.00000000	    -32.96439084	     -5.07274253	     -5.93404352	      0.00000000	      0.00000000	      0.00000000	      0.00000000	      0.00000000	      0.00000000	      0.00000000	      0.00000000	      0.00000000	     -0.00042092	      0.00000000	      0.00000000	      0.00000000	      0.00000000	      0.00000000	      0.00000000	      0.00000000	      0.00000000	      0.00000000	      0.00000000	      0.00000000	      0.00000000	      0.00000000	      0.00000000	      0.00000000	      0.00000000	      0.00000000	      0.00000000	      0.00000000	      0.00000000	      0.00000000
      2.26500000	     15.64486309	      3.02870541	     -8.44082684	      0.54306020	      0.75778056	      0.79429011	      9.06871353	     -5.77683437	     -0.98416908	    -22.93289183	     -5.00000000	      3.60938741	      7.23888026	     -4.94410346	      5.00000000	    -12.65179157	     18.58246447	     -2.00000000	      1.22259751	    -26.40210421	     11.25279906	     -2.23229826	     -3.07216072	      5.00000000	      2.66427691	     12.03032298	     -3.41693969	      5.00000000	      0.49672577	     20.24990013	      1.26308943	      2.00000000	    -34.14070463	     -4.75078637	     -7.14526966	      0.00000000	      0.00000000	      0.00000000	      0.00000000	      0.00000000	      0.00000000	      0.00000000	      0.00000000	      0.00000000	     -0.00042092	      0.00000000	      0.00000000	      0.00000000	      0.00000000	      0.00000000	      0.00000000	      0.00000000	      0.00000000	      0.00000000	      0.00000000	      0.00000000	      0.00000000	      0.00000000	      0.00000000	      0.00000000	      0.00000000	      0.00000000	      0.00000000	      0.00000000	      0.00000000	      0.00000000
